HIERARCHY
ROOT Hips
{
  OFFSET 0.0 0.0 0.0
  CHANNELS 6 XPOSITION YPOSITION ZPOSITION ZROTATION XROTATION YROTATION 
  JOINT LeftUpLeg
  {
    OFFSET 0.089458 -0.0866707 0.00101652
    CHANNELS 3 ZROTATION XROTATION YROTATION 
    JOINT LeftLeg
    {
      OFFSET 0.0 -0.444227 0.013727
      CHANNELS 3 ZROTATION XROTATION YROTATION 
      JOINT LeftFoot
      {
        OFFSET -0.00253549 -0.420924 -0.0146059
        CHANNELS 3 ZROTATION XROTATION YROTATION 
        End Site
        {
          OFFSET -0.0004 -0.0441509 0.084991
        }
      }
    }
  }
  JOINT Spine
  {
    OFFSET 0.0 0.118905 0.0
    CHANNELS 3 ZROTATION XROTATION YROTATION 
    JOINT Spine1
    {
      OFFSET 0.0 0.256574 0.00127663
      CHANNELS 3 ZROTATION XROTATION YROTATION 
      End Site
      {
        OFFSET -0.0029 0.2150836 0.02525291
      }
      JOINT RightArm
      {
        OFFSET -0.162727 -0.05365632 0.00102123
        CHANNELS 3 ZROTATION XROTATION YROTATION 
        JOINT RightForeArm
        {
          OFFSET -0.26364 0.00099144 -0.0142434
          CHANNELS 3 ZROTATION XROTATION YROTATION 
          End Site
          {
            OFFSET -0.220324 0.00085362 0.0102216
          }
        }
      }
      JOINT LeftArm
      {
        OFFSET 0.162727 -0.0536563199 0.00102123
        CHANNELS 3 ZROTATION XROTATION YROTATION 
        JOINT LeftForeArm
        {
          OFFSET 0.262597 0.00099144 -0.0142434
          CHANNELS 3 ZROTATION XROTATION YROTATION 
          End Site
          {
            OFFSET 0.220902 0.00085362 0.0102216
          }
        }
      }
    }
  }
  JOINT RightUpLeg
  {
    OFFSET -0.089458 -0.0866707 0.00101652
    CHANNELS 3 ZROTATION XROTATION YROTATION 
    JOINT RightLeg
    {
      OFFSET 0.0 -0.444227 0.013727
      CHANNELS 3 ZROTATION XROTATION YROTATION 
      JOINT RightFoot
      {
        OFFSET 0.00253549 -0.420924 -0.0146059
        CHANNELS 3 ZROTATION XROTATION YROTATION 
        End Site
        {
          OFFSET 0.0004 -0.0441509 0.084991
        }
      }
    }
  }
}
MOTION
Frames: 14
Frame Time: 0.033333
1.95770086065 0.984911298724 0.0391739463819 -4.11382507153 -0.492627073722 -91.3518950167 -0.982472019296 2.24875995639 1.85311996806 0.344178008073 9.18191038616 17.1548994873 -3.2276718463 -34.1097017528 -0.0624532820891 0.45458697547 8.74931010979 -0.0634835000656 -0.0708578031824 -3.13563995644 0.0566493021615 78.7370683745 -20.2261299061 6.31072084023 8.2039801225 41.0901994807 6.84979992378 -72.9281564099 -9.83647217376 0.876585144058 -4.09030019248 36.1186004065 -14.7956001763 -0.556324991035 3.08775990347 -4.05542012394 -0.258608997945 10.5633998156 -8.23215977547 3.12996855155 -36.4995029811 -0.0564163086675 
1.95783180981 0.980809484768 0.0389913604422 -4.12291818775 -0.504597193686 -91.3564234321 -0.983531125504 2.25007711568 1.85312060839 0.344338090632 9.1815560701 17.1630957143 -3.23019922974 -34.1146741305 -0.0624803427117 0.464102602922 8.75526005833 -0.0602575163432 -0.0868148993319 -3.15080511083 0.0627892286787 78.734561695 -20.223146821 6.29586005615 8.2010320421 41.0763888382 6.8577882569 -72.9247959568 -9.83430529624 0.882042678648 -4.08783534797 36.132916483 -14.795805082 -0.556428884615 3.08809821127 -4.05542097771 -0.258738878261 10.5633929854 -8.23213757735 3.12568922459 -36.499499566 -0.0564424621555 
1.95810854929 0.98066650917 0.0386620925664 -4.14127944379 -0.52808989614 -91.3663818479 -0.988785568688 2.25038874306 1.85199896326 0.343881108288 9.18677262708 17.1779513758 -3.23758031636 -34.1264459615 -0.0625838694364 0.498498208283 8.77835890433 -0.0536866709234 -0.156372378571 -3.21127256211 0.0815450948923 78.7233192037 -20.1701991946 6.23273630161 8.18185201713 40.996909342 6.91281311463 -72.9086903708 -9.85373291556 0.901727230475 -4.08330693255 36.2037455447 -14.7856537133 -0.558564652752 3.08866362287 -4.05544146828 -0.261008155252 10.5633588345 -8.23221527075 3.10178441627 -36.4994859056 -0.0566091881403 
1.95848070829 0.980647867939 0.038232348116 -4.15480108391 -0.565326753474 -91.3736559994 -1.00018056538 2.23501185281 1.84531519627 0.341208316527 9.20074036393 17.1771112625 -3.2410664876 -34.1287853013 -0.0627077199759 0.529887036305 8.79681834434 -0.0536050221484 -0.239484094743 -3.27893070848 0.0952457206556 78.7261878831 -20.1130066056 6.18070861627 8.15835872771 40.9750527366 6.96287541304 -72.893786898 -9.92711219914 0.924050850004 -4.08206042302 36.3081620617 -14.7606005795 -0.566795350867 3.07726574469 -4.05550720885 -0.267596779841 10.5632922401 -8.23117622822 3.06544759644 -36.4994756603 -0.0570665706909 
1.95892506339 0.9806430758 0.0376630180916 -4.15262865687 -0.615222192495 -91.3773852827 -1.01443837183 2.19721806825 1.83295490175 0.336275799369 9.21463382247 17.1649159598 -3.22724325193 -34.1153366588 -0.0626846814277 0.525615713474 8.78721851346 -0.0608651563854 -0.252273063675 -3.29193752309 0.0887614899052 78.7780290189 -20.2035151498 6.23961088701 8.17052841726 41.223801396 6.87747499652 -72.9101725218 -10.0091111814 0.93404405709 -4.07648058536 36.3608467258 -14.7489687673 -0.580903266681 3.04444711262 -4.05584530322 -0.274268860804 10.5633964005 -8.22499746835 3.05351290808 -36.5006436227 -0.057650558535 
1.95940621546 0.980631076369 0.0370184586158 -4.14866031696 -0.661649069357 -91.3776653204 -1.02278347561 2.15730308307 1.8267866006 0.329472290625 9.22375041747 17.1650525635 -3.16333338531 -34.1323062638 -0.0586952506428 0.51255126914 8.76933622444 -0.0657598740499 -0.207007399013 -3.25803011617 0.0755429794477 78.8637888741 -20.4246664298 6.37972965651 8.22644973732 41.6376630484 6.67013350521 -72.9533598079 -10.0248504986 0.927834134474 -4.05560880792 36.3415480263 -14.773490854 -0.592075108285 3.00976896154 -4.05806041894 -0.27377372545 10.5643637261 -8.22194352001 3.11928208026 -36.5147103973 -0.0497939900349 
1.95982129503 0.980594689694 0.0364078633684 -4.15776111714 -0.695483051741 -91.3678435084 -1.0221009903 2.13697515944 1.83070029899 0.32271125712 9.2307923425 17.1731719509 -3.07780234143 -34.1790930596 -0.0522026455736 0.52208178427 8.74463313776 -0.0712837094999 -0.175744542625 -3.18413942219 0.0657736678304 78.9398088796 -20.6054376315 6.51431469213 8.29407373274 41.934981183 6.47682762575 -72.9861310556 -10.006683903 0.889129159995 -4.0322999336 36.2872275319 -14.810681234 -0.596593064978 2.99328899574 -4.06717786771 -0.26385095469 10.5718222926 -8.23316637459 3.20816952179 -36.5370075498 -0.0370528524376 
1.96011393872 0.980560123123 0.0358817341202 -4.17337066072 -0.727565143964 -91.3492175826 -1.02597413445 2.13133171564 1.82637081283 0.322846713646 9.23678754105 17.1757281492 -3.03231520255 -34.2128205338 -0.0481727472519 0.542236125046 8.68511060046 -0.0897273280126 -0.19988605969 -3.05967694036 0.0531447581118 78.9933575627 -20.657898607 6.61874358878 8.35045267547 42.0203585476 6.36827713682 -72.977518187 -10.0518399911 0.815822607263 -4.02150140452 36.2169653759 -14.8318343299 -0.607175642684 2.98307017896 -4.08876638813 -0.247201941701 10.5970222756 -8.24185010635 3.23527640817 -36.5514021735 -0.0304983921346 
1.96038716584 0.980535430534 0.035462114788 -4.18447313321 -0.766476518222 -91.3344165626 -1.04712616309 2.12124459345 1.8021375151 0.332842882259 9.24410694252 17.17620797 -3.03063028026 -34.225142195 -0.0459097701767 0.555636102424 8.62520215748 -0.118908377427 -0.2746502575 -2.95348414736 0.0374569141559 79.0391334905 -20.6201054627 6.68900147591 8.40386304724 41.9601777508 6.31453379334 -72.9257112022 -10.1483608094 0.759741364731 -4.00415315092 36.1274352562 -14.8593429167 -0.633192260119 2.96235677653 -4.1183876379 -0.231329035637 10.6322412923 -8.22807105347 3.22533079897 -36.5576893626 -0.0289993590449 
1.96081114233 0.980518807895 0.0351770697494 -4.19903296209 -0.801995422897 -91.3281054678 -1.07251024098 2.10181035739 1.77782513659 0.342281856846 9.25930325965 17.1797511306 -3.05626739531 -34.2281713839 -0.0458021913622 0.583508823766 8.66657944347 -0.141743967658 -0.385220428033 -3.00086879817 0.0331878624967 79.0712353796 -20.5247252861 6.66640080683 8.45354669703 41.7793553227 6.30750125981 -72.848871574 -10.1817425052 0.778262649965 -3.95667437156 36.0459681749 -14.9245182893 -0.660533240563 2.94299148269 -4.14069503573 -0.222039764922 10.6508586804 -8.20890810398 3.21435660596 -36.5672174765 -0.0309747744839 
1.96136191374 0.980488845999 0.0350179636239 -4.22246136472 -0.818349723895 -91.3111324477 -1.07756063226 2.08024659641 1.7769800074 0.339758715598 9.28167042163 17.1684847336 -3.07828365632 -34.2491400647 -0.0486908611231 0.64653300695 8.82324861511 -0.15125391218 -0.509040605267 -3.21170243714 0.0446549530354 79.0688448134 -20.3759757188 6.52120806055 8.47454696741 41.5102424543 6.37383520326 -72.7705293042 -10.1248615435 0.846163107969 -3.91017913945 36.0129203046 -14.9884454449 -0.670894850977 2.93757962499 -4.14913458822 -0.213898246133 10.6513376474 -8.21385059962 3.21091504439 -36.5932541576 -0.0334644117869 
1.96181234181 0.980448065611 0.0349396045538 -4.23691319123 -0.818672290251 -91.2768107472 -1.06345767901 2.05670784353 1.79045266226 0.328756187979 9.30022633806 17.1323188819 -3.0780721339 -34.2793773121 -0.053220100301 0.719405896031 8.97189658333 -0.157749261998 -0.619231887064 -3.42620772967 0.0575133077513 79.0434296795 -20.2252078306 6.34578447011 8.46608180171 41.2773603244 6.47297582595 -72.7044062429 -10.0717499926 0.887836760138 -3.92385958147 36.0197675692 -14.9790863782 -0.67091443441 2.927359741 -4.15541537405 -0.197932358783 10.6612499594 -8.23350703028 3.20067466984 -36.6244305561 -0.0360436619722 
1.96204790952 0.980425994266 0.0349371417172 -4.22912506802 -0.818560445903 -91.2528914247 -1.05417363766 2.02656899349 1.79636259016 0.317728954286 9.31211172099 17.1014908231 -3.06801468035 -34.2864294824 -0.0561426875541 0.771674345541 9.03583227661 -0.169603041962 -0.725412727241 -3.54683377961 0.0637499975051 79.0321257164 -20.1305294559 6.24198224331 8.47165523607 41.1291349741 6.51825613817 -72.643392163 -10.0692911244 0.895908442911 -3.99536995453 36.0227591921 -14.9022774859 -0.679241395503 2.89452936954 -4.16750993152 -0.179511978921 10.6890676124 -8.23754879472 3.18450355665 -36.637896274 -0.040021823612 
1.96218512232 0.980431714619 0.0350408233842 -4.21464634765 -0.821485741219 -91.2595235384 -1.05612995324 1.99485386385 1.79937342292 0.303712498975 9.32898058069 17.0984684644 -3.07991500432 -34.268145066 -0.0571064712686 0.814696853349 9.08885588891 -0.18271084199 -0.859475947074 -3.64990112075 0.0717524379018 79.0458612268 -20.0613618377 6.18362169195 8.51189358802 40.9537664521 6.51258836181 -72.5771598186 -10.0713171293 0.926470124352 -4.05685190234 36.0134701348 -14.8378295284 -0.692820078378 2.85821794947 -4.17339926213 -0.17459683072 10.7085387742 -8.23173886506 3.16282453622 -36.6309909528 -0.0459773216814 
